<svg width="432" height="100" viewBox="0 0 432 100" fill="none" xmlns="http://www.w3.org/2000/svg">
<line y1="48" x2="126" y2="48" stroke="#095572" stroke-width="4"/>
<path d="M207.667 37.5013H236.833M207.667 54.168H236.833M195.167 37.5013H195.208M195.167 54.168H195.208M253.5 83.3346L239.649 76.4088C238.599 75.8838 238.074 75.6213 237.523 75.4363C237.035 75.2721 236.532 75.1534 236.022 75.0817C235.447 75.0013 234.86 75.0013 233.686 75.0013H191.833C187.166 75.0013 184.833 75.0013 183.05 74.093C181.482 73.2942 180.207 72.0192 179.408 70.4513C178.5 68.6688 178.5 66.3351 178.5 61.668V30.0013C178.5 25.3342 178.5 23.0006 179.408 21.2181C180.207 19.65 181.482 18.3752 183.05 17.5763C184.833 16.668 187.166 16.668 191.833 16.668H240.167C244.834 16.668 247.168 16.668 248.95 17.5763C250.518 18.3752 251.793 19.65 252.592 21.2181C253.5 23.0006 253.5 25.3342 253.5 30.0013V83.3346Z" stroke="#095572" stroke-width="8" stroke-linecap="round" stroke-linejoin="round"/>
<line x1="306" y1="48" x2="432" y2="48" stroke="#095572" stroke-width="4"/>
</svg>
