<svg width="44" height="45" viewBox="0 0 44 45" fill="none" xmlns="http://www.w3.org/2000/svg">
<circle cx="22" cy="22.6719" r="21.5" stroke="#828699"/>
<path d="M17.6851 12.4023H26.3091C29.5945 12.4023 32.2638 15.0717 32.2638 18.357V26.981C32.2638 28.5603 31.6364 30.0749 30.5197 31.1916C29.403 32.3083 27.8884 32.9357 26.3091 32.9357H17.6851C14.3998 32.9357 11.7305 30.2663 11.7305 26.981V18.357C11.7305 16.7777 12.3578 15.2631 13.4746 14.1464C14.5913 13.0297 16.1059 12.4023 17.6851 12.4023ZM17.4798 14.4557C16.4996 14.4557 15.5595 14.8451 14.8663 15.5382C14.1732 16.2313 13.7838 17.1714 13.7838 18.1517V27.1863C13.7838 29.2294 15.4367 30.8823 17.4798 30.8823H26.5145C27.4947 30.8823 28.4348 30.4929 29.1279 29.7998C29.8211 29.1067 30.2105 28.1666 30.2105 27.1863V18.1517C30.2105 16.1086 28.5575 14.4557 26.5145 14.4557H17.4798ZM27.3871 15.9957C27.7275 15.9957 28.0539 16.1309 28.2946 16.3716C28.5353 16.6122 28.6705 16.9386 28.6705 17.279C28.6705 17.6194 28.5353 17.9458 28.2946 18.1865C28.0539 18.4271 27.7275 18.5623 27.3871 18.5623C27.0468 18.5623 26.7204 18.4271 26.4797 18.1865C26.239 17.9458 26.1038 17.6194 26.1038 17.279C26.1038 16.9386 26.239 16.6122 26.4797 16.3716C26.7204 16.1309 27.0468 15.9957 27.3871 15.9957ZM21.9971 17.5357C23.3586 17.5357 24.6643 18.0765 25.627 19.0392C26.5896 20.0019 27.1305 21.3076 27.1305 22.669C27.1305 24.0305 26.5896 25.3361 25.627 26.2988C24.6643 27.2615 23.3586 27.8023 21.9971 27.8023C20.6357 27.8023 19.33 27.2615 18.3673 26.2988C17.4046 25.3361 16.8638 24.0305 16.8638 22.669C16.8638 21.3076 17.4046 20.0019 18.3673 19.0392C19.33 18.0765 20.6357 17.5357 21.9971 17.5357ZM21.9971 19.589C21.1803 19.589 20.3969 19.9135 19.8192 20.4911C19.2416 21.0687 18.9171 21.8521 18.9171 22.669C18.9171 23.4859 19.2416 24.2693 19.8192 24.8469C20.3969 25.4245 21.1803 25.749 21.9971 25.749C22.814 25.749 23.5974 25.4245 24.175 24.8469C24.7526 24.2693 25.0771 23.4859 25.0771 22.669C25.0771 21.8521 24.7526 21.0687 24.175 20.4911C23.5974 19.9135 22.814 19.589 21.9971 19.589Z" fill="#828699"/>
</svg>
