<svg width="432" height="100" viewBox="0 0 432 100" fill="none" xmlns="http://www.w3.org/2000/svg">
<line y1="48" x2="126" y2="48" stroke="#095572" stroke-width="4"/>
<path d="M232.666 32H199.333C198.228 32 197.168 31.561 196.386 30.7796C195.605 29.9982 195.166 28.9384 195.166 27.8333V15.3333C195.166 13.1232 196.044 11.0036 197.607 9.44078C199.17 7.87797 201.289 7 203.499 7H228.499C230.709 7 232.829 7.87797 234.392 9.44078C235.955 11.0036 236.833 13.1232 236.833 15.3333V27.8333C236.833 28.9384 236.394 29.9982 235.612 30.7796C234.831 31.561 233.771 32 232.666 32ZM202.499 25.6667H229.499V14.3333H202.499V25.6667Z" fill="#095572"/>
<path d="M182.665 28.5H249.332C252.001 28.5 254.165 30.664 254.165 33.3333V83.3333C254.165 86.0027 252.001 88.1667 249.332 88.1667H182.665C179.996 88.1667 177.832 86.0027 177.832 83.3333V33.3333C177.832 30.664 179.996 28.5 182.665 28.5Z" stroke="#095572" stroke-width="7"/>
<path d="M195.043 59.2917C195.043 62.2383 195.621 65.0406 196.776 67.6983C197.932 70.3561 199.463 72.6672 201.37 74.6317C203.276 76.5961 205.587 78.1417 208.303 79.2683C211.019 80.395 213.821 80.9583 216.71 80.9583C219.599 80.9583 222.401 80.395 225.116 79.2683C227.832 78.1417 230.143 76.5961 232.05 74.6317C233.956 72.6672 235.487 70.3561 236.643 67.6983C237.799 65.0406 238.376 62.2383 238.376 59.2917C238.376 56.345 237.799 53.5428 236.643 50.885C235.487 48.2272 233.956 45.9161 232.05 43.9517C230.143 41.9872 227.846 40.4561 225.16 39.3583C222.473 38.2606 219.656 37.6828 216.71 37.625C213.763 37.625 210.961 38.2028 208.303 39.3583C205.645 40.5139 203.334 42.045 201.37 43.9517C199.405 45.8583 197.874 48.1694 196.776 50.885C195.679 53.6006 195.101 56.4028 195.043 59.2917ZM200.46 59.2917C200.46 56.345 201.182 53.6294 202.626 51.145C204.071 48.6606 206.05 46.6961 208.563 45.2517C211.076 43.8072 213.792 43.0706 216.71 43.0417C219.627 43.0128 222.343 43.7494 224.856 45.2517C227.37 46.7539 229.349 48.7183 230.793 51.145C232.237 53.5717 232.96 56.2872 232.96 59.2917C232.96 62.2961 232.237 65.0261 230.793 67.4817C229.349 69.9372 227.37 71.9017 224.856 73.375C222.343 74.8483 219.627 75.5706 216.71 75.5417C213.792 75.5128 211.076 74.7906 208.563 73.375C206.05 71.9594 204.071 69.995 202.626 67.4817C201.182 64.9683 200.46 62.2383 200.46 59.2917ZM208.26 65.055C208.26 65.8061 208.52 66.4417 209.04 66.9617C209.56 67.4817 210.21 67.7561 210.99 67.785C211.77 67.8139 212.405 67.5394 212.896 66.9617L216.71 63.1483L220.523 66.9617C221.043 67.5106 221.679 67.785 222.43 67.785C223.181 67.785 223.831 67.5106 224.38 66.9617C224.929 66.4128 225.189 65.7772 225.16 65.055C225.131 64.3328 224.871 63.6972 224.38 63.1483L220.523 59.2917L224.38 55.4783C224.9 54.9583 225.16 54.3228 225.16 53.5717C225.16 52.8206 224.9 52.185 224.38 51.665C223.86 51.145 223.21 50.8706 222.43 50.8417C221.65 50.8128 221.014 51.0872 220.523 51.665L216.71 55.4783L212.896 51.665C212.376 51.1161 211.741 50.8417 210.99 50.8417C210.239 50.8417 209.589 51.1161 209.04 51.665C208.491 52.2139 208.231 52.8494 208.26 53.5717C208.289 54.2939 208.549 54.9294 209.04 55.4783L212.896 59.2917L209.04 63.1483C208.52 63.6683 208.26 64.3039 208.26 65.055Z" fill="#095572"/>
<line x1="306" y1="48" x2="432" y2="48" stroke="#095572" stroke-width="4"/>
</svg>
