<svg width="432" height="100" viewBox="0 0 432 100" fill="none" xmlns="http://www.w3.org/2000/svg">
<line y1="48" x2="126" y2="48" stroke="#095572" stroke-width="4"/>
<path d="M215.939 23.4805L221.809 35.6362L234.939 37.6218L225.439 47.0655L227.678 60.4805L215.939 54.1362L204.201 60.4805L206.439 47.0655L196.939 37.6218L210.07 35.6362L215.939 23.4805Z" fill="#095572"/>
<path d="M243.833 6.16797H188.167C183.945 6.16797 179.897 7.8449 176.912 10.8299C173.927 13.8148 172.25 17.8633 172.25 22.0846V61.8346C172.25 66.056 173.927 70.1045 176.912 73.0894C179.897 76.0744 183.945 77.7513 188.167 77.7513H204.083L216 89.668L227.917 77.7513H243.833C248.055 77.7513 252.103 76.0744 255.088 73.0894C258.073 70.1045 259.75 66.056 259.75 61.8346V22.0846C259.75 17.8633 258.073 13.8148 255.088 10.8299C252.103 7.8449 248.055 6.16797 243.833 6.16797Z" stroke="#095572" stroke-width="8" stroke-miterlimit="10"/>
<line x1="306" y1="48" x2="432" y2="48" stroke="#095572" stroke-width="4"/>
</svg>
