<svg width="44" height="45" viewBox="0 0 44 45" fill="none" xmlns="http://www.w3.org/2000/svg">
<circle cx="22" cy="22.6719" r="21.5" stroke="#828699"/>
<path d="M33.7302 14.818C32.8125 15.2408 31.8233 15.5186 30.7983 15.6514C31.8471 15.0113 32.6576 13.9967 33.0389 12.7768C32.0497 13.3807 30.9532 13.8034 29.7971 14.045C28.8556 13.0063 27.5326 12.4023 26.0309 12.4023C23.2301 12.4023 20.9417 14.7214 20.9417 17.584C20.9417 17.9947 20.9894 18.3932 21.0729 18.7677C16.8299 18.5503 13.0518 16.4849 10.537 13.3565C10.096 14.1175 9.8457 15.0113 9.8457 15.9534C9.8457 17.7531 10.7396 19.3474 12.1221 20.2533C11.2759 20.2533 10.4893 20.0118 9.79802 19.6494V19.6856C9.79802 22.198 11.5619 24.2996 13.898 24.7707C13.148 24.9787 12.3606 25.0076 11.5977 24.8552C11.9214 25.8849 12.5554 26.7858 13.4105 27.4315C14.2656 28.0771 15.2989 28.4349 16.3651 28.4546C14.5578 29.9045 12.3176 30.6883 10.0126 30.677C9.60733 30.677 9.2021 30.6529 8.79688 30.6045C11.0614 32.0781 13.7549 32.9357 16.6392 32.9357C26.0309 32.9357 31.1916 25.0364 31.1916 18.1879C31.1916 17.9584 31.1916 17.741 31.1797 17.5115C32.1808 16.7868 33.0389 15.8689 33.7302 14.818Z" fill="#828699"/>
</svg>
