<svg width="432" height="100" viewBox="0 0 432 100" fill="none" xmlns="http://www.w3.org/2000/svg">
<line y1="48" x2="126" y2="48" stroke="#D98C08" stroke-width="4"/>
<path d="M215.999 74.9993C218.3 74.9993 220.165 73.1339 220.165 70.8327C220.165 68.5315 218.3 66.666 215.999 66.666C213.698 66.666 211.832 68.5315 211.832 70.8327C211.832 73.1339 213.698 74.9993 215.999 74.9993Z" fill="#D98C08"/>
<path d="M216 41.666V58.3327" stroke="#D98C08" stroke-width="5" stroke-linecap="round" stroke-linejoin="round"/>
<path d="M180.363 75.4395L208.546 19.0733C211.617 12.9313 220.382 12.9313 223.454 19.0733L251.636 75.4395C254.407 80.9804 250.378 87.4995 244.183 87.4995H187.817C181.622 87.4995 177.593 80.9804 180.363 75.4395Z" stroke="#D98C08" stroke-width="5" stroke-linecap="round" stroke-linejoin="round"/>
<line x1="306" y1="48" x2="432" y2="48" stroke="#D98C08" stroke-width="4"/>
</svg>
